<svg xmlns="http://www.w3.org/2000/svg" viewBox="0 0 256 256" width="256" height="256">
  <defs>
    <linearGradient id="bg" x1="0" y1="0" x2="1" y2="1">
      <stop offset="0%" stop-color="#89b4fa"/>
      <stop offset="100%" stop-color="#74c7ec"/>
    </linearGradient>
  </defs>
  <!-- Speech bubble body (Twitch-style shape) -->
  <path d="M28 20 C28 20 228 20 228 20 C236 20 240 24 240 32 L240 180 C240 188 236 192 228 192 L176 192 L128 240 L128 192 L28 192 C20 192 16 188 16 180 L16 32 C16 24 20 20 28 20 Z" fill="url(#bg)"/>
  <!-- Left eye -->
  <rect x="88" y="72" width="20" height="56" rx="4" fill="#1e1e2e"/>
  <!-- Right eye -->
  <rect x="148" y="72" width="20" height="56" rx="4" fill="#1e1e2e"/>
  <!-- Sound waves (TTS indicator) -->
  <path d="M192 88 Q208 106 192 124" stroke="#1e1e2e" stroke-width="6" fill="none" stroke-linecap="round"/>
  <path d="M204 76 Q228 106 204 136" stroke="#1e1e2e" stroke-width="6" fill="none" stroke-linecap="round" opacity="0.6"/>
</svg>
